<svg xmlns="http://www.w3.org/2000/svg" xmlns:xlink="http://www.w3.org/1999/xlink" width="256" zoomAndPan="magnify" viewBox="0 0 192 191.999996" height="256" preserveAspectRatio="xMidYMid meet" version="1.0"><defs><clipPath id="4c653b23e6"><path d="M 0 0 L 191.792969 0 L 191.792969 188.84375 L 0 188.84375 Z M 0 0 " clip-rule="nonzero"/></clipPath><clipPath id="aa610da9cb"><path d="M 22.5 0 L 169.5 0 C 175.46875 0 181.191406 2.371094 185.410156 6.589844 C 189.628906 10.808594 192 16.53125 192 22.5 L 192 166.34375 C 192 178.769531 181.925781 188.84375 169.5 188.84375 L 22.5 188.84375 C 10.074219 188.84375 0 178.769531 0 166.34375 L 0 22.5 C 0 10.074219 10.074219 0 22.5 0 Z M 22.5 0 " clip-rule="nonzero"/></clipPath><linearGradient x1="0.00668335" gradientTransform="matrix(0.73767, 0, 0, 0.73767, -0.00492811, 0)" y1="128" x2="260.006668" gradientUnits="userSpaceOnUse" y2="128" id="0d4222265f"><stop stop-opacity="1" stop-color="rgb(33.297729%, 33.297729%, 31.39801%)" offset="0"/><stop stop-opacity="1" stop-color="rgb(33.16803%, 33.16803%, 31.27594%)" offset="0.0078125"/><stop stop-opacity="1" stop-color="rgb(32.90863%, 32.90863%, 31.030273%)" offset="0.015625"/><stop stop-opacity="1" stop-color="rgb(32.647705%, 32.647705%, 30.784607%)" offset="0.0234375"/><stop stop-opacity="1" stop-color="rgb(32.388306%, 32.388306%, 30.540466%)" offset="0.03125"/><stop stop-opacity="1" stop-color="rgb(32.128906%, 32.128906%, 30.2948%)" offset="0.0390625"/><stop stop-opacity="1" stop-color="rgb(31.869507%, 31.869507%, 30.050659%)" offset="0.046875"/><stop stop-opacity="1" stop-color="rgb(31.608582%, 31.608582%, 29.804993%)" offset="0.0546875"/><stop stop-opacity="1" stop-color="rgb(31.349182%, 31.349182%, 29.560852%)" offset="0.0625"/><stop stop-opacity="1" stop-color="rgb(31.089783%, 31.089783%, 29.315186%)" offset="0.0703125"/><stop stop-opacity="1" stop-color="rgb(30.828857%, 30.828857%, 29.069519%)" offset="0.078125"/><stop stop-opacity="1" stop-color="rgb(30.569458%, 30.569458%, 28.825378%)" offset="0.0859375"/><stop stop-opacity="1" stop-color="rgb(30.310059%, 30.310059%, 28.579712%)" offset="0.09375"/><stop stop-opacity="1" stop-color="rgb(30.049133%, 30.049133%, 28.335571%)" offset="0.101562"/><stop stop-opacity="1" stop-color="rgb(29.789734%, 29.789734%, 28.089905%)" offset="0.109375"/><stop stop-opacity="1" stop-color="rgb(29.530334%, 29.530334%, 27.844238%)" offset="0.117187"/><stop stop-opacity="1" stop-color="rgb(29.269409%, 29.269409%, 27.600098%)" offset="0.125"/><stop stop-opacity="1" stop-color="rgb(29.01001%, 29.01001%, 27.354431%)" offset="0.132812"/><stop stop-opacity="1" stop-color="rgb(28.75061%, 28.75061%, 27.110291%)" offset="0.140625"/><stop stop-opacity="1" stop-color="rgb(28.489685%, 28.489685%, 26.864624%)" offset="0.148438"/><stop stop-opacity="1" stop-color="rgb(28.230286%, 28.230286%, 26.618958%)" offset="0.15625"/><stop stop-opacity="1" stop-color="rgb(27.970886%, 27.970886%, 26.374817%)" offset="0.164062"/><stop stop-opacity="1" stop-color="rgb(27.711487%, 27.711487%, 26.12915%)" offset="0.171875"/><stop stop-opacity="1" stop-color="rgb(27.450562%, 27.450562%, 25.88501%)" offset="0.179688"/><stop stop-opacity="1" stop-color="rgb(27.191162%, 27.191162%, 25.639343%)" offset="0.1875"/><stop stop-opacity="1" stop-color="rgb(26.931763%, 26.931763%, 25.393677%)" offset="0.195312"/><stop stop-opacity="1" stop-color="rgb(26.670837%, 26.670837%, 25.149536%)" offset="0.203125"/><stop stop-opacity="1" stop-color="rgb(26.411438%, 26.411438%, 24.90387%)" offset="0.210938"/><stop stop-opacity="1" stop-color="rgb(26.152039%, 26.152039%, 24.659729%)" offset="0.21875"/><stop stop-opacity="1" stop-color="rgb(25.891113%, 25.891113%, 24.414062%)" offset="0.226562"/><stop stop-opacity="1" stop-color="rgb(25.631714%, 25.631714%, 24.168396%)" offset="0.234375"/><stop stop-opacity="1" stop-color="rgb(25.372314%, 25.372314%, 23.924255%)" offset="0.242188"/><stop stop-opacity="1" stop-color="rgb(25.111389%, 25.111389%, 23.678589%)" offset="0.25"/><stop stop-opacity="1" stop-color="rgb(24.85199%, 24.85199%, 23.434448%)" offset="0.257812"/><stop stop-opacity="1" stop-color="rgb(24.59259%, 24.59259%, 23.188782%)" offset="0.265625"/><stop stop-opacity="1" stop-color="rgb(24.331665%, 24.331665%, 22.943115%)" offset="0.273437"/><stop stop-opacity="1" stop-color="rgb(24.072266%, 24.072266%, 22.698975%)" offset="0.28125"/><stop stop-opacity="1" stop-color="rgb(23.812866%, 23.812866%, 22.453308%)" offset="0.289062"/><stop stop-opacity="1" stop-color="rgb(23.553467%, 23.553467%, 22.209167%)" offset="0.296875"/><stop stop-opacity="1" stop-color="rgb(23.292542%, 23.292542%, 21.963501%)" offset="0.304687"/><stop stop-opacity="1" stop-color="rgb(23.033142%, 23.033142%, 21.717834%)" offset="0.3125"/><stop stop-opacity="1" stop-color="rgb(22.773743%, 22.773743%, 21.473694%)" offset="0.320312"/><stop stop-opacity="1" stop-color="rgb(22.512817%, 22.512817%, 21.228027%)" offset="0.328125"/><stop stop-opacity="1" stop-color="rgb(22.253418%, 22.253418%, 20.983887%)" offset="0.335937"/><stop stop-opacity="1" stop-color="rgb(21.994019%, 21.994019%, 20.73822%)" offset="0.34375"/><stop stop-opacity="1" stop-color="rgb(21.733093%, 21.733093%, 20.492554%)" offset="0.351562"/><stop stop-opacity="1" stop-color="rgb(21.473694%, 21.473694%, 20.248413%)" offset="0.359375"/><stop stop-opacity="1" stop-color="rgb(21.214294%, 21.214294%, 20.002747%)" offset="0.367187"/><stop stop-opacity="1" stop-color="rgb(20.953369%, 20.953369%, 19.758606%)" offset="0.375"/><stop stop-opacity="1" stop-color="rgb(20.69397%, 20.69397%, 19.512939%)" offset="0.382812"/><stop stop-opacity="1" stop-color="rgb(20.43457%, 20.43457%, 19.267273%)" offset="0.390625"/><stop stop-opacity="1" stop-color="rgb(20.173645%, 20.173645%, 19.023132%)" offset="0.398437"/><stop stop-opacity="1" stop-color="rgb(19.914246%, 19.914246%, 18.777466%)" offset="0.40625"/><stop stop-opacity="1" stop-color="rgb(19.654846%, 19.654846%, 18.533325%)" offset="0.414062"/><stop stop-opacity="1" stop-color="rgb(19.395447%, 19.395447%, 18.287659%)" offset="0.421875"/><stop stop-opacity="1" stop-color="rgb(19.134521%, 19.134521%, 18.043518%)" offset="0.429687"/><stop stop-opacity="1" stop-color="rgb(18.875122%, 18.875122%, 17.797852%)" offset="0.4375"/><stop stop-opacity="1" stop-color="rgb(18.615723%, 18.615723%, 17.552185%)" offset="0.445312"/><stop stop-opacity="1" stop-color="rgb(18.354797%, 18.354797%, 17.308044%)" offset="0.453125"/><stop stop-opacity="1" stop-color="rgb(18.095398%, 18.095398%, 17.062378%)" offset="0.460937"/><stop stop-opacity="1" stop-color="rgb(17.835999%, 17.835999%, 16.818237%)" offset="0.46875"/><stop stop-opacity="1" stop-color="rgb(17.575073%, 17.575073%, 16.572571%)" offset="0.476562"/><stop stop-opacity="1" stop-color="rgb(17.315674%, 17.315674%, 16.326904%)" offset="0.484375"/><stop stop-opacity="1" stop-color="rgb(17.056274%, 17.056274%, 16.082764%)" offset="0.492187"/><stop stop-opacity="1" stop-color="rgb(16.795349%, 16.795349%, 15.837097%)" offset="0.5"/><stop stop-opacity="1" stop-color="rgb(16.53595%, 16.53595%, 15.592957%)" offset="0.507812"/><stop stop-opacity="1" stop-color="rgb(16.27655%, 16.27655%, 15.34729%)" offset="0.515625"/><stop stop-opacity="1" stop-color="rgb(16.015625%, 16.015625%, 15.101624%)" offset="0.523438"/><stop stop-opacity="1" stop-color="rgb(15.756226%, 15.756226%, 14.857483%)" offset="0.53125"/><stop stop-opacity="1" stop-color="rgb(15.496826%, 15.496826%, 14.611816%)" offset="0.539062"/><stop stop-opacity="1" stop-color="rgb(15.237427%, 15.237427%, 14.367676%)" offset="0.546875"/><stop stop-opacity="1" stop-color="rgb(14.976501%, 14.976501%, 14.122009%)" offset="0.554688"/><stop stop-opacity="1" stop-color="rgb(14.717102%, 14.717102%, 13.876343%)" offset="0.5625"/><stop stop-opacity="1" stop-color="rgb(14.457703%, 14.457703%, 13.632202%)" offset="0.570312"/><stop stop-opacity="1" stop-color="rgb(14.196777%, 14.196777%, 13.386536%)" offset="0.578125"/><stop stop-opacity="1" stop-color="rgb(13.937378%, 13.937378%, 13.142395%)" offset="0.585938"/><stop stop-opacity="1" stop-color="rgb(13.677979%, 13.677979%, 12.896729%)" offset="0.59375"/><stop stop-opacity="1" stop-color="rgb(13.417053%, 13.417053%, 12.651062%)" offset="0.601562"/><stop stop-opacity="1" stop-color="rgb(13.157654%, 13.157654%, 12.406921%)" offset="0.609375"/><stop stop-opacity="1" stop-color="rgb(12.898254%, 12.898254%, 12.161255%)" offset="0.617188"/><stop stop-opacity="1" stop-color="rgb(12.637329%, 12.637329%, 11.917114%)" offset="0.625"/><stop stop-opacity="1" stop-color="rgb(12.37793%, 12.37793%, 11.671448%)" offset="0.632812"/><stop stop-opacity="1" stop-color="rgb(12.11853%, 12.11853%, 11.425781%)" offset="0.640625"/><stop stop-opacity="1" stop-color="rgb(11.857605%, 11.857605%, 11.181641%)" offset="0.648438"/><stop stop-opacity="1" stop-color="rgb(11.598206%, 11.598206%, 10.935974%)" offset="0.65625"/><stop stop-opacity="1" stop-color="rgb(11.338806%, 11.338806%, 10.691833%)" offset="0.664062"/><stop stop-opacity="1" stop-color="rgb(11.077881%, 11.077881%, 10.446167%)" offset="0.671875"/><stop stop-opacity="1" stop-color="rgb(10.818481%, 10.818481%, 10.2005%)" offset="0.679688"/><stop stop-opacity="1" stop-color="rgb(10.559082%, 10.559082%, 9.95636%)" offset="0.6875"/><stop stop-opacity="1" stop-color="rgb(10.299683%, 10.299683%, 9.710693%)" offset="0.695312"/><stop stop-opacity="1" stop-color="rgb(10.038757%, 10.038757%, 9.466553%)" offset="0.703125"/><stop stop-opacity="1" stop-color="rgb(9.779358%, 9.779358%, 9.220886%)" offset="0.710938"/><stop stop-opacity="1" stop-color="rgb(9.519958%, 9.519958%, 8.97522%)" offset="0.71875"/><stop stop-opacity="1" stop-color="rgb(9.259033%, 9.259033%, 8.731079%)" offset="0.726562"/><stop stop-opacity="1" stop-color="rgb(8.999634%, 8.999634%, 8.485413%)" offset="0.734375"/><stop stop-opacity="1" stop-color="rgb(8.740234%, 8.740234%, 8.241272%)" offset="0.742188"/><stop stop-opacity="1" stop-color="rgb(8.479309%, 8.479309%, 7.995605%)" offset="0.75"/><stop stop-opacity="1" stop-color="rgb(8.21991%, 8.21991%, 7.749939%)" offset="0.757812"/><stop stop-opacity="1" stop-color="rgb(7.96051%, 7.96051%, 7.505798%)" offset="0.765625"/><stop stop-opacity="1" stop-color="rgb(7.699585%, 7.699585%, 7.260132%)" offset="0.773438"/><stop stop-opacity="1" stop-color="rgb(7.440186%, 7.440186%, 7.015991%)" offset="0.78125"/><stop stop-opacity="1" stop-color="rgb(7.180786%, 7.180786%, 6.770325%)" offset="0.789062"/><stop stop-opacity="1" stop-color="rgb(6.919861%, 6.919861%, 6.526184%)" offset="0.796875"/><stop stop-opacity="1" stop-color="rgb(6.660461%, 6.660461%, 6.280518%)" offset="0.804688"/><stop stop-opacity="1" stop-color="rgb(6.401062%, 6.401062%, 6.034851%)" offset="0.8125"/><stop stop-opacity="1" stop-color="rgb(6.141663%, 6.141663%, 5.79071%)" offset="0.820312"/><stop stop-opacity="1" stop-color="rgb(5.880737%, 5.880737%, 5.545044%)" offset="0.828125"/><stop stop-opacity="1" stop-color="rgb(5.621338%, 5.621338%, 5.300903%)" offset="0.835938"/><stop stop-opacity="1" stop-color="rgb(5.361938%, 5.361938%, 5.055237%)" offset="0.84375"/><stop stop-opacity="1" stop-color="rgb(5.101013%, 5.101013%, 4.80957%)" offset="0.851562"/><stop stop-opacity="1" stop-color="rgb(4.841614%, 4.841614%, 4.56543%)" offset="0.859375"/><stop stop-opacity="1" stop-color="rgb(4.582214%, 4.582214%, 4.319763%)" offset="0.867188"/><stop stop-opacity="1" stop-color="rgb(4.321289%, 4.321289%, 4.075623%)" offset="0.875"/><stop stop-opacity="1" stop-color="rgb(4.06189%, 4.06189%, 3.829956%)" offset="0.882812"/><stop stop-opacity="1" stop-color="rgb(3.80249%, 3.80249%, 3.58429%)" offset="0.890625"/><stop stop-opacity="1" stop-color="rgb(3.541565%, 3.541565%, 3.340149%)" offset="0.898438"/><stop stop-opacity="1" stop-color="rgb(3.282166%, 3.282166%, 3.094482%)" offset="0.90625"/><stop stop-opacity="1" stop-color="rgb(3.022766%, 3.022766%, 2.850342%)" offset="0.914062"/><stop stop-opacity="1" stop-color="rgb(2.761841%, 2.761841%, 2.604675%)" offset="0.921875"/><stop stop-opacity="1" stop-color="rgb(2.502441%, 2.502441%, 2.359009%)" offset="0.929688"/><stop stop-opacity="1" stop-color="rgb(2.243042%, 2.243042%, 2.114868%)" offset="0.9375"/><stop stop-opacity="1" stop-color="rgb(1.983643%, 1.983643%, 1.869202%)" offset="0.945312"/><stop stop-opacity="1" stop-color="rgb(1.722717%, 1.722717%, 1.625061%)" offset="0.953125"/><stop stop-opacity="1" stop-color="rgb(1.463318%, 1.463318%, 1.379395%)" offset="0.960938"/><stop stop-opacity="1" stop-color="rgb(1.203918%, 1.203918%, 1.133728%)" offset="0.96875"/><stop stop-opacity="1" stop-color="rgb(0.942993%, 0.942993%, 0.889587%)" offset="0.976562"/><stop stop-opacity="1" stop-color="rgb(0.683594%, 0.683594%, 0.643921%)" offset="0.984375"/><stop stop-opacity="1" stop-color="rgb(0.424194%, 0.424194%, 0.39978%)" offset="0.992188"/><stop stop-opacity="1" stop-color="rgb(0.163269%, 0.163269%, 0.154114%)" offset="1"/></linearGradient><clipPath id="fd979e5d08"><path d="M 47.96875 39.707031 L 136 39.707031 L 136 148 L 47.96875 148 Z M 47.96875 39.707031 " clip-rule="nonzero"/></clipPath><clipPath id="e7a79503ca"><path d="M 104 105 L 158.21875 105 L 158.21875 160.457031 L 104 160.457031 Z M 104 105 " clip-rule="nonzero"/></clipPath></defs><g clip-path="url(#4c653b23e6)"><g clip-path="url(#aa610da9cb)"><path fill="url(#0d4222265f)" d="M 0 0 L 0 188.84375 L 191.792969 188.84375 L 191.792969 0 Z M 0 0 " fill-rule="nonzero"/></g></g><g clip-path="url(#fd979e5d08)"><path fill="#ffffff" d="M 60.003906 141.210938 C 56.835938 141.210938 54.300781 138.675781 54.300781 135.511719 L 54.300781 51.777344 C 54.300781 48.609375 56.835938 46.074219 60.003906 46.074219 L 123.46875 46.074219 C 126.636719 46.074219 129.167969 48.609375 129.167969 51.777344 L 129.167969 99.789062 C 129.929688 99.789062 130.6875 99.660156 131.449219 99.660156 C 132.84375 99.660156 134.109375 99.789062 135.375 99.914062 L 135.375 51.777344 C 135.375 45.1875 129.929688 39.742188 123.339844 39.742188 L 60.003906 39.742188 C 53.414062 39.742188 47.96875 45.1875 47.96875 51.777344 L 47.96875 135.511719 C 47.96875 142.097656 53.414062 147.546875 60.003906 147.546875 L 101.425781 147.546875 C 100.414062 145.519531 99.652344 143.492188 99.144531 141.210938 Z M 60.003906 141.210938 " fill-opacity="1" fill-rule="nonzero"/></g><path fill="#ffffff" d="M 70.390625 56.082031 L 65.578125 56.082031 C 63.804688 56.082031 62.410156 57.476562 62.410156 59.25 C 62.410156 61.023438 63.804688 62.417969 65.578125 62.417969 L 70.390625 62.417969 C 72.164062 62.417969 73.558594 61.023438 73.558594 59.25 C 73.558594 57.476562 72.164062 56.082031 70.390625 56.082031 Z M 70.390625 56.082031 " fill-opacity="1" fill-rule="nonzero"/><path fill="#ffffff" d="M 117.769531 56.082031 L 82.550781 56.082031 C 80.777344 56.082031 79.382812 57.476562 79.382812 59.25 C 79.382812 61.023438 80.777344 62.417969 82.550781 62.417969 L 117.640625 62.417969 C 119.414062 62.417969 120.808594 61.023438 120.808594 59.25 C 120.933594 57.476562 119.414062 56.082031 117.769531 56.082031 Z M 117.769531 56.082031 " fill-opacity="1" fill-rule="nonzero"/><path fill="#ffffff" d="M 70.390625 73.3125 L 65.578125 73.3125 C 63.804688 73.3125 62.410156 74.707031 62.410156 76.480469 C 62.410156 78.253906 63.804688 79.644531 65.578125 79.644531 L 70.390625 79.644531 C 72.164062 79.644531 73.558594 78.253906 73.558594 76.480469 C 73.558594 74.707031 72.164062 73.3125 70.390625 73.3125 Z M 70.390625 73.3125 " fill-opacity="1" fill-rule="nonzero"/><path fill="#ffffff" d="M 117.769531 73.3125 L 82.550781 73.3125 C 80.777344 73.3125 79.382812 74.707031 79.382812 76.480469 C 79.382812 78.253906 80.777344 79.644531 82.550781 79.644531 L 117.640625 79.644531 C 119.414062 79.644531 120.808594 78.253906 120.808594 76.480469 C 120.808594 74.707031 119.414062 73.3125 117.769531 73.3125 Z M 117.769531 73.3125 " fill-opacity="1" fill-rule="nonzero"/><path fill="#ffffff" d="M 70.390625 90.539062 L 65.578125 90.539062 C 63.804688 90.539062 62.410156 91.933594 62.410156 93.707031 C 62.410156 95.480469 63.804688 96.875 65.578125 96.875 L 70.390625 96.875 C 72.164062 96.875 73.558594 95.480469 73.558594 93.707031 C 73.558594 91.933594 72.164062 90.539062 70.390625 90.539062 Z M 70.390625 90.539062 " fill-opacity="1" fill-rule="nonzero"/><path fill="#ffffff" d="M 117.769531 90.539062 L 82.550781 90.539062 C 80.777344 90.539062 79.382812 91.933594 79.382812 93.707031 C 79.382812 95.480469 80.777344 96.875 82.550781 96.875 L 117.640625 96.875 C 119.414062 96.875 120.808594 95.480469 120.808594 93.707031 C 120.933594 91.933594 119.414062 90.539062 117.769531 90.539062 Z M 117.769531 90.539062 " fill-opacity="1" fill-rule="nonzero"/><path fill="#ffffff" d="M 70.390625 107.769531 L 65.578125 107.769531 C 63.804688 107.769531 62.410156 109.160156 62.410156 110.933594 C 62.410156 112.707031 63.804688 114.101562 65.578125 114.101562 L 70.390625 114.101562 C 72.164062 114.101562 73.558594 112.707031 73.558594 110.933594 C 73.558594 109.160156 72.164062 107.769531 70.390625 107.769531 Z M 70.390625 107.769531 " fill-opacity="1" fill-rule="nonzero"/><path fill="#ffffff" d="M 109.660156 107.769531 L 82.550781 107.769531 C 80.777344 107.769531 79.382812 109.160156 79.382812 110.933594 C 79.382812 112.707031 80.777344 114.101562 82.550781 114.101562 L 103.960938 114.101562 C 105.605469 111.695312 107.507812 109.542969 109.660156 107.769531 Z M 109.660156 107.769531 " fill-opacity="1" fill-rule="nonzero"/><path fill="#ffffff" d="M 70.390625 124.996094 L 65.578125 124.996094 C 63.804688 124.996094 62.410156 126.390625 62.410156 128.164062 C 62.410156 129.9375 63.804688 131.332031 65.578125 131.332031 L 70.390625 131.332031 C 72.164062 131.332031 73.558594 129.9375 73.558594 128.164062 C 73.558594 126.390625 72.164062 124.996094 70.390625 124.996094 Z M 70.390625 124.996094 " fill-opacity="1" fill-rule="nonzero"/><path fill="#ffffff" d="M 98.132812 131.332031 C 98.257812 129.175781 98.511719 127.023438 99.019531 124.996094 L 82.550781 124.996094 C 80.777344 124.996094 79.382812 126.390625 79.382812 128.164062 C 79.382812 129.9375 80.777344 131.332031 82.550781 131.332031 Z M 98.132812 131.332031 " fill-opacity="1" fill-rule="nonzero"/><g clip-path="url(#e7a79503ca)"><path fill="#ffffff" d="M 131.449219 105.996094 C 116.5 105.996094 104.339844 118.15625 104.339844 133.105469 C 104.339844 148.050781 116.5 160.210938 131.449219 160.210938 C 146.398438 160.210938 158.558594 148.050781 158.558594 133.105469 C 158.558594 118.15625 146.398438 105.996094 131.449219 105.996094 Z M 110.675781 132.976562 C 110.675781 128.417969 112.195312 124.109375 114.726562 120.6875 L 143.738281 149.699219 C 140.316406 152.230469 136.007812 153.753906 131.449219 153.753906 C 120.046875 153.753906 110.675781 144.503906 110.675781 132.976562 Z M 148.171875 145.265625 L 119.160156 116.253906 C 122.582031 113.722656 126.886719 112.203125 131.449219 112.203125 C 142.851562 112.203125 152.222656 121.449219 152.222656 132.976562 C 152.222656 137.664062 150.703125 141.84375 148.171875 145.265625 Z M 148.171875 145.265625 " fill-opacity="1" fill-rule="nonzero"/></g></svg>